<mxfile host="app.diagrams.net" modified="2024-04-23T16:24:31.988Z" agent="Mozilla/5.0 (X11; Linux x86_64; rv:123.0) Gecko/20100101 Firefox/123.0" etag="HzYkC0AIKOF4XnYSBE1K" version="23.1.7" type="device">
  <diagram name="Page-1" id="2c4490ee-f0b8-94ab-5012-d5dc3445f7a3">
    <mxGraphModel dx="1185" dy="641" grid="1" gridSize="10" guides="1" tooltips="1" connect="0" arrows="1" fold="1" page="1" pageScale="1.5" pageWidth="1169" pageHeight="826" background="none" math="0" shadow="0">
      <root>
        <mxCell id="0" style=";html=1;" />
        <mxCell id="1" style=";html=1;" parent="0" />
        <mxCell id="7a8b956e7d50b54d-150" value="" style="align=left;strokeColor=#CCCCCC;html=1;fillColor=#E6E6E6;" parent="1" vertex="1">
          <mxGeometry x="640" y="400" width="40" height="40" as="geometry" />
        </mxCell>
        <mxCell id="L5YzpUP7XBprOjPt1JhP-1" value="&lt;span style=&quot;white-space: pre;&quot;&gt;&#x9;&lt;/span&gt;Review" style="align=left;strokeColor=#CCCCCC;html=1;fontStyle=2;fillColor=#E6E6E6;" vertex="1" parent="1">
          <mxGeometry x="520" y="400" width="120" height="40" as="geometry" />
        </mxCell>
        <mxCell id="L5YzpUP7XBprOjPt1JhP-2" value="&lt;span style=&quot;white-space: pre;&quot;&gt;&#x9;&lt;/span&gt;Task" style="strokeWidth=1;fontStyle=1;html=1;align=left;" vertex="1" parent="1">
          <mxGeometry x="520" y="380" width="120" height="20" as="geometry" />
        </mxCell>
        <mxCell id="L5YzpUP7XBprOjPt1JhP-18" value="" style="strokeWidth=1;fontStyle=1;html=1;fillColor=#000000;align=left;" vertex="1" parent="1">
          <mxGeometry x="520" y="360" width="120" height="20" as="geometry" />
        </mxCell>
        <mxCell id="L5YzpUP7XBprOjPt1JhP-145" value="Mar" style="strokeWidth=1;fontStyle=1;html=1;fillColor=#E6E6E6;" vertex="1" parent="1">
          <mxGeometry x="640" y="360" width="40" height="20" as="geometry" />
        </mxCell>
        <mxCell id="L5YzpUP7XBprOjPt1JhP-146" value="Apr" style="strokeWidth=1;fontStyle=1;html=1;fillColor=#E6E6E6;" vertex="1" parent="1">
          <mxGeometry x="680" y="360" width="40" height="20" as="geometry" />
        </mxCell>
        <mxCell id="L5YzpUP7XBprOjPt1JhP-147" value="May" style="strokeWidth=1;fontStyle=1;html=1;fillColor=#E6E6E6;" vertex="1" parent="1">
          <mxGeometry x="720" y="360" width="40" height="20" as="geometry" />
        </mxCell>
        <mxCell id="L5YzpUP7XBprOjPt1JhP-148" value="Jun" style="strokeWidth=1;fontStyle=1;html=1;fillColor=#E6E6E6;" vertex="1" parent="1">
          <mxGeometry x="760" y="360" width="40" height="20" as="geometry" />
        </mxCell>
        <mxCell id="L5YzpUP7XBprOjPt1JhP-182" value="Jul" style="strokeWidth=1;fontStyle=1;html=1;fillColor=#E6E6E6;" vertex="1" parent="1">
          <mxGeometry x="800" y="360" width="40" height="20" as="geometry" />
        </mxCell>
        <mxCell id="L5YzpUP7XBprOjPt1JhP-183" value="Aug" style="strokeWidth=1;fontStyle=1;html=1;fillColor=#E6E6E6;" vertex="1" parent="1">
          <mxGeometry x="840" y="360" width="40" height="20" as="geometry" />
        </mxCell>
        <mxCell id="L5YzpUP7XBprOjPt1JhP-184" value="Sep" style="strokeWidth=1;fontStyle=1;html=1;fillColor=#E6E6E6;" vertex="1" parent="1">
          <mxGeometry x="880" y="360" width="40" height="20" as="geometry" />
        </mxCell>
        <mxCell id="L5YzpUP7XBprOjPt1JhP-185" value="Oct" style="strokeWidth=1;fontStyle=1;html=1;fillColor=#E6E6E6;" vertex="1" parent="1">
          <mxGeometry x="920" y="360" width="40" height="20" as="geometry" />
        </mxCell>
        <mxCell id="L5YzpUP7XBprOjPt1JhP-219" value="Nov" style="strokeWidth=1;fontStyle=1;html=1;fillColor=#E6E6E6;" vertex="1" parent="1">
          <mxGeometry x="960" y="360" width="40" height="20" as="geometry" />
        </mxCell>
        <mxCell id="L5YzpUP7XBprOjPt1JhP-220" value="Dec" style="strokeWidth=1;fontStyle=1;html=1;fillColor=#E6E6E6;" vertex="1" parent="1">
          <mxGeometry x="1000" y="360" width="40" height="20" as="geometry" />
        </mxCell>
        <mxCell id="L5YzpUP7XBprOjPt1JhP-221" value="Jan" style="strokeWidth=1;fontStyle=1;html=1;fillColor=#E6E6E6;" vertex="1" parent="1">
          <mxGeometry x="1040" y="360" width="40" height="20" as="geometry" />
        </mxCell>
        <mxCell id="L5YzpUP7XBprOjPt1JhP-222" value="Feb" style="strokeWidth=1;fontStyle=1;html=1;fillColor=#E6E6E6;" vertex="1" parent="1">
          <mxGeometry x="1080" y="360" width="40" height="20" as="geometry" />
        </mxCell>
        <mxCell id="L5YzpUP7XBprOjPt1JhP-224" value="" style="align=left;strokeColor=#CCCCCC;html=1;fillColor=#E6E6E6;" vertex="1" parent="1">
          <mxGeometry x="680" y="400" width="40" height="40" as="geometry" />
        </mxCell>
        <mxCell id="L5YzpUP7XBprOjPt1JhP-225" value="" style="align=left;strokeColor=#CCCCCC;html=1;fillColor=#E6E6E6;" vertex="1" parent="1">
          <mxGeometry x="720" y="400" width="40" height="40" as="geometry" />
        </mxCell>
        <mxCell id="L5YzpUP7XBprOjPt1JhP-226" value="" style="align=left;strokeColor=#CCCCCC;html=1;fillColor=#E6E6E6;" vertex="1" parent="1">
          <mxGeometry x="760" y="400" width="40" height="40" as="geometry" />
        </mxCell>
        <mxCell id="L5YzpUP7XBprOjPt1JhP-227" value="" style="align=left;strokeColor=#CCCCCC;html=1;fillColor=#E6E6E6;" vertex="1" parent="1">
          <mxGeometry x="800" y="400" width="40" height="40" as="geometry" />
        </mxCell>
        <mxCell id="L5YzpUP7XBprOjPt1JhP-228" value="" style="align=left;strokeColor=#CCCCCC;html=1;fillColor=#E6E6E6;" vertex="1" parent="1">
          <mxGeometry x="840" y="400" width="40" height="40" as="geometry" />
        </mxCell>
        <mxCell id="L5YzpUP7XBprOjPt1JhP-229" value="" style="align=left;strokeColor=#CCCCCC;html=1;fillColor=#E6E6E6;" vertex="1" parent="1">
          <mxGeometry x="880" y="400" width="40" height="40" as="geometry" />
        </mxCell>
        <mxCell id="L5YzpUP7XBprOjPt1JhP-230" value="" style="align=left;strokeColor=#CCCCCC;html=1;fillColor=#E6E6E6;" vertex="1" parent="1">
          <mxGeometry x="920" y="400" width="40" height="40" as="geometry" />
        </mxCell>
        <mxCell id="L5YzpUP7XBprOjPt1JhP-231" value="" style="align=left;strokeColor=#CCCCCC;html=1;fillColor=#E6E6E6;" vertex="1" parent="1">
          <mxGeometry x="960" y="400" width="40" height="40" as="geometry" />
        </mxCell>
        <mxCell id="L5YzpUP7XBprOjPt1JhP-232" value="" style="align=left;strokeColor=#CCCCCC;html=1;fillColor=#E6E6E6;" vertex="1" parent="1">
          <mxGeometry x="1000" y="400" width="40" height="40" as="geometry" />
        </mxCell>
        <mxCell id="L5YzpUP7XBprOjPt1JhP-233" value="" style="align=left;strokeColor=#CCCCCC;html=1;fillColor=#E6E6E6;" vertex="1" parent="1">
          <mxGeometry x="1040" y="400" width="40" height="40" as="geometry" />
        </mxCell>
        <mxCell id="L5YzpUP7XBprOjPt1JhP-234" value="" style="align=left;strokeColor=#CCCCCC;html=1;fillColor=#E6E6E6;" vertex="1" parent="1">
          <mxGeometry x="1080" y="400" width="40" height="40" as="geometry" />
        </mxCell>
        <mxCell id="7a8b956e7d50b54d-152" value="Q1" style="strokeWidth=1;fontStyle=1;html=1;" parent="1" vertex="1">
          <mxGeometry x="640" y="380" width="160" height="20" as="geometry" />
        </mxCell>
        <mxCell id="L5YzpUP7XBprOjPt1JhP-149" value="Q2" style="strokeWidth=1;fontStyle=1;html=1;" vertex="1" parent="1">
          <mxGeometry x="800" y="380" width="160" height="20" as="geometry" />
        </mxCell>
        <mxCell id="L5YzpUP7XBprOjPt1JhP-186" value="Q3" style="strokeWidth=1;fontStyle=1;html=1;" vertex="1" parent="1">
          <mxGeometry x="960" y="380" width="160" height="20" as="geometry" />
        </mxCell>
        <mxCell id="L5YzpUP7XBprOjPt1JhP-239" value="" style="align=left;strokeColor=#CCCCCC;html=1;" vertex="1" parent="1">
          <mxGeometry x="640" y="440" width="40" height="40" as="geometry" />
        </mxCell>
        <mxCell id="L5YzpUP7XBprOjPt1JhP-240" value="&lt;span style=&quot;white-space: pre;&quot;&gt;&#x9;&lt;/span&gt;Dissasembly" style="align=left;strokeColor=#CCCCCC;html=1;fontStyle=2" vertex="1" parent="1">
          <mxGeometry x="520" y="440" width="120" height="40" as="geometry" />
        </mxCell>
        <mxCell id="L5YzpUP7XBprOjPt1JhP-241" value="" style="align=left;strokeColor=#CCCCCC;html=1;" vertex="1" parent="1">
          <mxGeometry x="680" y="440" width="40" height="40" as="geometry" />
        </mxCell>
        <mxCell id="L5YzpUP7XBprOjPt1JhP-242" value="" style="align=left;strokeColor=#CCCCCC;html=1;" vertex="1" parent="1">
          <mxGeometry x="720" y="440" width="40" height="40" as="geometry" />
        </mxCell>
        <mxCell id="L5YzpUP7XBprOjPt1JhP-243" value="" style="align=left;strokeColor=#CCCCCC;html=1;" vertex="1" parent="1">
          <mxGeometry x="760" y="440" width="40" height="40" as="geometry" />
        </mxCell>
        <mxCell id="L5YzpUP7XBprOjPt1JhP-244" value="" style="align=left;strokeColor=#CCCCCC;html=1;" vertex="1" parent="1">
          <mxGeometry x="800" y="440" width="40" height="40" as="geometry" />
        </mxCell>
        <mxCell id="L5YzpUP7XBprOjPt1JhP-245" value="" style="align=left;strokeColor=#CCCCCC;html=1;" vertex="1" parent="1">
          <mxGeometry x="840" y="440" width="40" height="40" as="geometry" />
        </mxCell>
        <mxCell id="L5YzpUP7XBprOjPt1JhP-246" value="" style="align=left;strokeColor=#CCCCCC;html=1;" vertex="1" parent="1">
          <mxGeometry x="880" y="440" width="40" height="40" as="geometry" />
        </mxCell>
        <mxCell id="L5YzpUP7XBprOjPt1JhP-247" value="" style="align=left;strokeColor=#CCCCCC;html=1;" vertex="1" parent="1">
          <mxGeometry x="920" y="440" width="40" height="40" as="geometry" />
        </mxCell>
        <mxCell id="L5YzpUP7XBprOjPt1JhP-248" value="" style="align=left;strokeColor=#CCCCCC;html=1;" vertex="1" parent="1">
          <mxGeometry x="960" y="440" width="40" height="40" as="geometry" />
        </mxCell>
        <mxCell id="L5YzpUP7XBprOjPt1JhP-249" value="" style="align=left;strokeColor=#CCCCCC;html=1;" vertex="1" parent="1">
          <mxGeometry x="1000" y="440" width="40" height="40" as="geometry" />
        </mxCell>
        <mxCell id="L5YzpUP7XBprOjPt1JhP-250" value="" style="align=left;strokeColor=#CCCCCC;html=1;" vertex="1" parent="1">
          <mxGeometry x="1040" y="440" width="40" height="40" as="geometry" />
        </mxCell>
        <mxCell id="L5YzpUP7XBprOjPt1JhP-251" value="" style="align=left;strokeColor=#CCCCCC;html=1;" vertex="1" parent="1">
          <mxGeometry x="1080" y="440" width="40" height="40" as="geometry" />
        </mxCell>
        <mxCell id="L5YzpUP7XBprOjPt1JhP-256" value="" style="align=left;strokeColor=#CCCCCC;html=1;fillColor=#E6E6E6;" vertex="1" parent="1">
          <mxGeometry x="640" y="480" width="40" height="40" as="geometry" />
        </mxCell>
        <mxCell id="L5YzpUP7XBprOjPt1JhP-257" value="&lt;span style=&quot;white-space: pre;&quot;&gt;&#x9;&lt;/span&gt;Identification" style="align=left;strokeColor=#CCCCCC;html=1;fontStyle=2;fillColor=#E6E6E6;" vertex="1" parent="1">
          <mxGeometry x="520" y="480" width="120" height="40" as="geometry" />
        </mxCell>
        <mxCell id="L5YzpUP7XBprOjPt1JhP-258" value="" style="align=left;strokeColor=#CCCCCC;html=1;fillColor=#E6E6E6;" vertex="1" parent="1">
          <mxGeometry x="680" y="480" width="40" height="40" as="geometry" />
        </mxCell>
        <mxCell id="L5YzpUP7XBprOjPt1JhP-259" value="" style="align=left;strokeColor=#CCCCCC;html=1;fillColor=#E6E6E6;" vertex="1" parent="1">
          <mxGeometry x="720" y="480" width="40" height="40" as="geometry" />
        </mxCell>
        <mxCell id="L5YzpUP7XBprOjPt1JhP-260" value="" style="align=left;strokeColor=#CCCCCC;html=1;fillColor=#E6E6E6;" vertex="1" parent="1">
          <mxGeometry x="760" y="480" width="40" height="40" as="geometry" />
        </mxCell>
        <mxCell id="L5YzpUP7XBprOjPt1JhP-261" value="" style="align=left;strokeColor=#CCCCCC;html=1;fillColor=#E6E6E6;" vertex="1" parent="1">
          <mxGeometry x="800" y="480" width="40" height="40" as="geometry" />
        </mxCell>
        <mxCell id="L5YzpUP7XBprOjPt1JhP-262" value="" style="align=left;strokeColor=#CCCCCC;html=1;fillColor=#E6E6E6;" vertex="1" parent="1">
          <mxGeometry x="840" y="480" width="40" height="40" as="geometry" />
        </mxCell>
        <mxCell id="L5YzpUP7XBprOjPt1JhP-263" value="" style="align=left;strokeColor=#CCCCCC;html=1;fillColor=#E6E6E6;" vertex="1" parent="1">
          <mxGeometry x="880" y="480" width="40" height="40" as="geometry" />
        </mxCell>
        <mxCell id="L5YzpUP7XBprOjPt1JhP-264" value="" style="align=left;strokeColor=#CCCCCC;html=1;fillColor=#E6E6E6;" vertex="1" parent="1">
          <mxGeometry x="920" y="480" width="40" height="40" as="geometry" />
        </mxCell>
        <mxCell id="L5YzpUP7XBprOjPt1JhP-265" value="" style="align=left;strokeColor=#CCCCCC;html=1;fillColor=#E6E6E6;" vertex="1" parent="1">
          <mxGeometry x="960" y="480" width="40" height="40" as="geometry" />
        </mxCell>
        <mxCell id="L5YzpUP7XBprOjPt1JhP-266" value="" style="align=left;strokeColor=#CCCCCC;html=1;fillColor=#E6E6E6;" vertex="1" parent="1">
          <mxGeometry x="1000" y="480" width="40" height="40" as="geometry" />
        </mxCell>
        <mxCell id="L5YzpUP7XBprOjPt1JhP-267" value="" style="align=left;strokeColor=#CCCCCC;html=1;fillColor=#E6E6E6;" vertex="1" parent="1">
          <mxGeometry x="1040" y="480" width="40" height="40" as="geometry" />
        </mxCell>
        <mxCell id="L5YzpUP7XBprOjPt1JhP-268" value="" style="align=left;strokeColor=#CCCCCC;html=1;fillColor=#E6E6E6;" vertex="1" parent="1">
          <mxGeometry x="1080" y="480" width="40" height="40" as="geometry" />
        </mxCell>
        <mxCell id="L5YzpUP7XBprOjPt1JhP-273" value="" style="align=left;strokeColor=#CCCCCC;html=1;" vertex="1" parent="1">
          <mxGeometry x="640" y="520" width="40" height="40" as="geometry" />
        </mxCell>
        <mxCell id="L5YzpUP7XBprOjPt1JhP-274" value="&lt;span style=&quot;white-space: pre;&quot;&gt;&#x9;&lt;/span&gt;Analysis" style="align=left;strokeColor=#CCCCCC;html=1;fontStyle=2" vertex="1" parent="1">
          <mxGeometry x="520" y="520" width="120" height="40" as="geometry" />
        </mxCell>
        <mxCell id="L5YzpUP7XBprOjPt1JhP-275" value="" style="align=left;strokeColor=#CCCCCC;html=1;" vertex="1" parent="1">
          <mxGeometry x="680" y="520" width="40" height="40" as="geometry" />
        </mxCell>
        <mxCell id="L5YzpUP7XBprOjPt1JhP-276" value="" style="align=left;strokeColor=#CCCCCC;html=1;" vertex="1" parent="1">
          <mxGeometry x="720" y="520" width="40" height="40" as="geometry" />
        </mxCell>
        <mxCell id="L5YzpUP7XBprOjPt1JhP-277" value="" style="align=left;strokeColor=#CCCCCC;html=1;" vertex="1" parent="1">
          <mxGeometry x="760" y="520" width="40" height="40" as="geometry" />
        </mxCell>
        <mxCell id="L5YzpUP7XBprOjPt1JhP-278" value="" style="align=left;strokeColor=#CCCCCC;html=1;" vertex="1" parent="1">
          <mxGeometry x="800" y="520" width="40" height="40" as="geometry" />
        </mxCell>
        <mxCell id="L5YzpUP7XBprOjPt1JhP-279" value="" style="align=left;strokeColor=#CCCCCC;html=1;" vertex="1" parent="1">
          <mxGeometry x="840" y="520" width="40" height="40" as="geometry" />
        </mxCell>
        <mxCell id="L5YzpUP7XBprOjPt1JhP-280" value="" style="align=left;strokeColor=#CCCCCC;html=1;" vertex="1" parent="1">
          <mxGeometry x="880" y="520" width="40" height="40" as="geometry" />
        </mxCell>
        <mxCell id="L5YzpUP7XBprOjPt1JhP-281" value="" style="align=left;strokeColor=#CCCCCC;html=1;" vertex="1" parent="1">
          <mxGeometry x="920" y="520" width="40" height="40" as="geometry" />
        </mxCell>
        <mxCell id="L5YzpUP7XBprOjPt1JhP-282" value="" style="align=left;strokeColor=#CCCCCC;html=1;" vertex="1" parent="1">
          <mxGeometry x="960" y="520" width="40" height="40" as="geometry" />
        </mxCell>
        <mxCell id="L5YzpUP7XBprOjPt1JhP-283" value="" style="align=left;strokeColor=#CCCCCC;html=1;" vertex="1" parent="1">
          <mxGeometry x="1000" y="520" width="40" height="40" as="geometry" />
        </mxCell>
        <mxCell id="L5YzpUP7XBprOjPt1JhP-284" value="" style="align=left;strokeColor=#CCCCCC;html=1;" vertex="1" parent="1">
          <mxGeometry x="1040" y="520" width="40" height="40" as="geometry" />
        </mxCell>
        <mxCell id="L5YzpUP7XBprOjPt1JhP-285" value="" style="align=left;strokeColor=#CCCCCC;html=1;" vertex="1" parent="1">
          <mxGeometry x="1080" y="520" width="40" height="40" as="geometry" />
        </mxCell>
        <mxCell id="L5YzpUP7XBprOjPt1JhP-290" value="" style="align=left;strokeColor=#CCCCCC;html=1;fillColor=#E6E6E6;" vertex="1" parent="1">
          <mxGeometry x="640" y="560" width="40" height="40" as="geometry" />
        </mxCell>
        <mxCell id="L5YzpUP7XBprOjPt1JhP-291" value="&lt;span style=&quot;white-space: pre;&quot;&gt;&#x9;&lt;/span&gt;Firmware&lt;br&gt;&lt;span style=&quot;white-space: pre;&quot;&gt;&#x9;&lt;/span&gt;Modification" style="align=left;strokeColor=#CCCCCC;html=1;fontStyle=2;fillColor=#E6E6E6;" vertex="1" parent="1">
          <mxGeometry x="520" y="560" width="120" height="40" as="geometry" />
        </mxCell>
        <mxCell id="L5YzpUP7XBprOjPt1JhP-292" value="" style="align=left;strokeColor=#CCCCCC;html=1;fillColor=#E6E6E6;" vertex="1" parent="1">
          <mxGeometry x="680" y="560" width="40" height="40" as="geometry" />
        </mxCell>
        <mxCell id="L5YzpUP7XBprOjPt1JhP-293" value="" style="align=left;strokeColor=#CCCCCC;html=1;fillColor=#E6E6E6;" vertex="1" parent="1">
          <mxGeometry x="720" y="560" width="40" height="40" as="geometry" />
        </mxCell>
        <mxCell id="L5YzpUP7XBprOjPt1JhP-294" value="" style="align=left;strokeColor=#CCCCCC;html=1;fillColor=#E6E6E6;" vertex="1" parent="1">
          <mxGeometry x="760" y="560" width="40" height="40" as="geometry" />
        </mxCell>
        <mxCell id="L5YzpUP7XBprOjPt1JhP-295" value="" style="align=left;strokeColor=#CCCCCC;html=1;fillColor=#E6E6E6;" vertex="1" parent="1">
          <mxGeometry x="800" y="560" width="40" height="40" as="geometry" />
        </mxCell>
        <mxCell id="L5YzpUP7XBprOjPt1JhP-296" value="" style="align=left;strokeColor=#CCCCCC;html=1;fillColor=#E6E6E6;" vertex="1" parent="1">
          <mxGeometry x="840" y="560" width="40" height="40" as="geometry" />
        </mxCell>
        <mxCell id="L5YzpUP7XBprOjPt1JhP-297" value="" style="align=left;strokeColor=#CCCCCC;html=1;fillColor=#E6E6E6;" vertex="1" parent="1">
          <mxGeometry x="880" y="560" width="40" height="40" as="geometry" />
        </mxCell>
        <mxCell id="L5YzpUP7XBprOjPt1JhP-298" value="" style="align=left;strokeColor=#CCCCCC;html=1;fillColor=#E6E6E6;" vertex="1" parent="1">
          <mxGeometry x="920" y="560" width="40" height="40" as="geometry" />
        </mxCell>
        <mxCell id="L5YzpUP7XBprOjPt1JhP-299" value="" style="align=left;strokeColor=#CCCCCC;html=1;fillColor=#E6E6E6;" vertex="1" parent="1">
          <mxGeometry x="960" y="560" width="40" height="40" as="geometry" />
        </mxCell>
        <mxCell id="L5YzpUP7XBprOjPt1JhP-300" value="" style="align=left;strokeColor=#CCCCCC;html=1;fillColor=#E6E6E6;" vertex="1" parent="1">
          <mxGeometry x="1000" y="560" width="40" height="40" as="geometry" />
        </mxCell>
        <mxCell id="L5YzpUP7XBprOjPt1JhP-301" value="" style="align=left;strokeColor=#CCCCCC;html=1;fillColor=#E6E6E6;" vertex="1" parent="1">
          <mxGeometry x="1040" y="560" width="40" height="40" as="geometry" />
        </mxCell>
        <mxCell id="L5YzpUP7XBprOjPt1JhP-302" value="" style="align=left;strokeColor=#CCCCCC;html=1;fillColor=#E6E6E6;" vertex="1" parent="1">
          <mxGeometry x="1080" y="560" width="40" height="40" as="geometry" />
        </mxCell>
        <mxCell id="L5YzpUP7XBprOjPt1JhP-307" value="" style="align=left;strokeColor=#CCCCCC;html=1;" vertex="1" parent="1">
          <mxGeometry x="640" y="600" width="40" height="40" as="geometry" />
        </mxCell>
        <mxCell id="L5YzpUP7XBprOjPt1JhP-308" value="&lt;span style=&quot;white-space: pre;&quot;&gt;&#x9;&lt;/span&gt;Testing &amp;amp;&lt;br&gt;&lt;span style=&quot;white-space: pre;&quot;&gt;&#x9;&lt;/span&gt;Evaluation" style="align=left;strokeColor=#CCCCCC;html=1;fontStyle=2" vertex="1" parent="1">
          <mxGeometry x="520" y="600" width="120" height="40" as="geometry" />
        </mxCell>
        <mxCell id="L5YzpUP7XBprOjPt1JhP-309" value="" style="align=left;strokeColor=#CCCCCC;html=1;" vertex="1" parent="1">
          <mxGeometry x="680" y="600" width="40" height="40" as="geometry" />
        </mxCell>
        <mxCell id="L5YzpUP7XBprOjPt1JhP-310" value="" style="align=left;strokeColor=#CCCCCC;html=1;" vertex="1" parent="1">
          <mxGeometry x="720" y="600" width="40" height="40" as="geometry" />
        </mxCell>
        <mxCell id="L5YzpUP7XBprOjPt1JhP-311" value="" style="align=left;strokeColor=#CCCCCC;html=1;" vertex="1" parent="1">
          <mxGeometry x="760" y="600" width="40" height="40" as="geometry" />
        </mxCell>
        <mxCell id="L5YzpUP7XBprOjPt1JhP-312" value="" style="align=left;strokeColor=#CCCCCC;html=1;" vertex="1" parent="1">
          <mxGeometry x="800" y="600" width="40" height="40" as="geometry" />
        </mxCell>
        <mxCell id="L5YzpUP7XBprOjPt1JhP-313" value="" style="align=left;strokeColor=#CCCCCC;html=1;" vertex="1" parent="1">
          <mxGeometry x="840" y="600" width="40" height="40" as="geometry" />
        </mxCell>
        <mxCell id="L5YzpUP7XBprOjPt1JhP-314" value="" style="align=left;strokeColor=#CCCCCC;html=1;" vertex="1" parent="1">
          <mxGeometry x="880" y="600" width="40" height="40" as="geometry" />
        </mxCell>
        <mxCell id="L5YzpUP7XBprOjPt1JhP-315" value="" style="align=left;strokeColor=#CCCCCC;html=1;" vertex="1" parent="1">
          <mxGeometry x="920" y="600" width="40" height="40" as="geometry" />
        </mxCell>
        <mxCell id="L5YzpUP7XBprOjPt1JhP-316" value="" style="align=left;strokeColor=#CCCCCC;html=1;" vertex="1" parent="1">
          <mxGeometry x="960" y="600" width="40" height="40" as="geometry" />
        </mxCell>
        <mxCell id="L5YzpUP7XBprOjPt1JhP-317" value="" style="align=left;strokeColor=#CCCCCC;html=1;" vertex="1" parent="1">
          <mxGeometry x="1000" y="600" width="40" height="40" as="geometry" />
        </mxCell>
        <mxCell id="L5YzpUP7XBprOjPt1JhP-318" value="" style="align=left;strokeColor=#CCCCCC;html=1;" vertex="1" parent="1">
          <mxGeometry x="1040" y="600" width="40" height="40" as="geometry" />
        </mxCell>
        <mxCell id="L5YzpUP7XBprOjPt1JhP-319" value="" style="align=left;strokeColor=#CCCCCC;html=1;" vertex="1" parent="1">
          <mxGeometry x="1080" y="600" width="40" height="40" as="geometry" />
        </mxCell>
        <mxCell id="L5YzpUP7XBprOjPt1JhP-341" value="" style="align=left;strokeColor=#CCCCCC;html=1;fillColor=#E6E6E6;" vertex="1" parent="1">
          <mxGeometry x="640" y="640" width="40" height="40" as="geometry" />
        </mxCell>
        <mxCell id="L5YzpUP7XBprOjPt1JhP-342" value="&lt;span style=&quot;white-space: pre;&quot;&gt;&#x9;&lt;/span&gt;Writing" style="align=left;strokeColor=#CCCCCC;html=1;fontStyle=2;fillColor=#E6E6E6;" vertex="1" parent="1">
          <mxGeometry x="520" y="640" width="120" height="40" as="geometry" />
        </mxCell>
        <mxCell id="L5YzpUP7XBprOjPt1JhP-343" value="" style="align=left;strokeColor=#CCCCCC;html=1;fillColor=#E6E6E6;" vertex="1" parent="1">
          <mxGeometry x="680" y="640" width="40" height="40" as="geometry" />
        </mxCell>
        <mxCell id="L5YzpUP7XBprOjPt1JhP-344" value="" style="align=left;strokeColor=#CCCCCC;html=1;fillColor=#E6E6E6;" vertex="1" parent="1">
          <mxGeometry x="720" y="640" width="40" height="40" as="geometry" />
        </mxCell>
        <mxCell id="L5YzpUP7XBprOjPt1JhP-345" value="" style="align=left;strokeColor=#CCCCCC;html=1;fillColor=#E6E6E6;" vertex="1" parent="1">
          <mxGeometry x="760" y="640" width="40" height="40" as="geometry" />
        </mxCell>
        <mxCell id="L5YzpUP7XBprOjPt1JhP-346" value="" style="align=left;strokeColor=#CCCCCC;html=1;fillColor=#E6E6E6;" vertex="1" parent="1">
          <mxGeometry x="800" y="640" width="40" height="40" as="geometry" />
        </mxCell>
        <mxCell id="L5YzpUP7XBprOjPt1JhP-347" value="" style="align=left;strokeColor=#CCCCCC;html=1;fillColor=#E6E6E6;" vertex="1" parent="1">
          <mxGeometry x="840" y="640" width="40" height="40" as="geometry" />
        </mxCell>
        <mxCell id="L5YzpUP7XBprOjPt1JhP-348" value="" style="align=left;strokeColor=#CCCCCC;html=1;fillColor=#E6E6E6;" vertex="1" parent="1">
          <mxGeometry x="880" y="640" width="40" height="40" as="geometry" />
        </mxCell>
        <mxCell id="L5YzpUP7XBprOjPt1JhP-349" value="" style="align=left;strokeColor=#CCCCCC;html=1;fillColor=#E6E6E6;" vertex="1" parent="1">
          <mxGeometry x="920" y="640" width="40" height="40" as="geometry" />
        </mxCell>
        <mxCell id="L5YzpUP7XBprOjPt1JhP-350" value="" style="align=left;strokeColor=#CCCCCC;html=1;fillColor=#E6E6E6;" vertex="1" parent="1">
          <mxGeometry x="960" y="640" width="40" height="40" as="geometry" />
        </mxCell>
        <mxCell id="L5YzpUP7XBprOjPt1JhP-351" value="" style="align=left;strokeColor=#CCCCCC;html=1;" vertex="1" parent="1">
          <mxGeometry x="1000" y="640" width="40" height="40" as="geometry" />
        </mxCell>
        <mxCell id="L5YzpUP7XBprOjPt1JhP-352" value="" style="align=left;strokeColor=#CCCCCC;html=1;" vertex="1" parent="1">
          <mxGeometry x="1040" y="640" width="40" height="40" as="geometry" />
        </mxCell>
        <mxCell id="L5YzpUP7XBprOjPt1JhP-353" value="" style="align=left;strokeColor=#CCCCCC;html=1;" vertex="1" parent="1">
          <mxGeometry x="1080" y="640" width="40" height="40" as="geometry" />
        </mxCell>
        <mxCell id="7a8b956e7d50b54d-354" value="1.7Wk" style="align=left;strokeColor=#666666;html=1;fillColor=#B3B3B3;" parent="1" vertex="1">
          <mxGeometry x="640" y="400" width="40" height="40" as="geometry" />
        </mxCell>
        <mxCell id="L5YzpUP7XBprOjPt1JhP-362" value="2 Wks" style="align=left;strokeColor=#666666;html=1;fillColor=#B3B3B3;" vertex="1" parent="1">
          <mxGeometry x="680" y="440" width="40" height="40" as="geometry" />
        </mxCell>
        <mxCell id="L5YzpUP7XBprOjPt1JhP-363" value="2 Wks" style="align=left;strokeColor=#666666;html=1;fillColor=#B3B3B3;" vertex="1" parent="1">
          <mxGeometry x="680" y="480" width="40" height="40" as="geometry" />
        </mxCell>
        <mxCell id="L5YzpUP7XBprOjPt1JhP-364" value="11 Weeks" style="align=left;strokeColor=#666666;html=1;fillColor=#B3B3B3;" vertex="1" parent="1">
          <mxGeometry x="720" y="520" width="120" height="40" as="geometry" />
        </mxCell>
        <mxCell id="L5YzpUP7XBprOjPt1JhP-365" value="9 Weeks" style="align=left;strokeColor=#666666;html=1;fillColor=#B3B3B3;" vertex="1" parent="1">
          <mxGeometry x="840" y="560" width="80" height="40" as="geometry" />
        </mxCell>
        <mxCell id="L5YzpUP7XBprOjPt1JhP-367" value="9 Weeks" style="align=left;strokeColor=#666666;html=1;fillColor=#B3B3B3;" vertex="1" parent="1">
          <mxGeometry x="920" y="600" width="80" height="40" as="geometry" />
        </mxCell>
        <mxCell id="L5YzpUP7XBprOjPt1JhP-369" value="9 Weeks" style="align=left;strokeColor=#666666;html=1;fillColor=#B3B3B3;" vertex="1" parent="1">
          <mxGeometry x="1000" y="640" width="120" height="40" as="geometry" />
        </mxCell>
      </root>
    </mxGraphModel>
  </diagram>
</mxfile>
